<svg xmlns="http://www.w3.org/2000/svg" width="512" height="512" viewBox="0 0 512 512">
  <defs>
    <linearGradient id="bg" x1="0" y1="0" x2="1" y2="1">
      <stop offset="0" stop-color="#6BA5FF"/>
      <stop offset="1" stop-color="#2E6BE6"/>
    </linearGradient>
    <linearGradient id="sheen" x1="0" y1="0" x2="0" y2="1">
      <stop offset="0" stop-color="#ffffff" stop-opacity="0.22"/>
      <stop offset="0.5" stop-color="#ffffff" stop-opacity="0"/>
    </linearGradient>
  </defs>
  <rect width="512" height="512" rx="118.784" fill="url(#bg)"/>
  <rect width="512" height="512" rx="118.784" fill="url(#sheen)"/>
  <g transform="translate(107.51999999999998 107.51999999999998)"><g transform="scale(12.373333333333335)">
    <g fill="none" stroke="#ffffff" stroke-width="1.95" stroke-linecap="round" stroke-linejoin="round"><path d="M12 5a3 3 0 1 0-5.997.125 4 4 0 0 0-2.526 5.77 4 4 0 0 0 .556 6.588A4 4 0 1 0 12 18Z"/><path d="M9 13a4.5 4.5 0 0 0 3-4"/><path d="M6.003 5.125A3 3 0 0 0 6.401 6.5"/><path d="M3.477 10.896a4 4 0 0 1 .585-.396"/><path d="M6 18a4 4 0 0 1-1.967-.516"/><path d="M12 13h4"/><path d="M12 18h6a2 2 0 0 1 2 2v1"/><path d="M12 8h8"/><path d="M16 8V5a2 2 0 0 1 2-2"/></g>
    <g fill="#ffffff" stroke="none"><circle cx="16" cy="13" r="0.85"/><circle cx="18" cy="3" r="0.85"/><circle cx="20" cy="21" r="0.85"/><circle cx="20" cy="8" r="0.85"/></g>
  </g></g>
</svg>